<?xml version="1.0" encoding="UTF-8"?>
<svg id="Layer_2" data-name="Layer 2" xmlns="http://www.w3.org/2000/svg" xmlns:xlink="http://www.w3.org/1999/xlink" viewBox="0 0 360.17 318.54">
  <defs>
    <style>
      .cls-1 {
        fill: url(#linear-gradient);
      }
    </style>
    <linearGradient id="linear-gradient" x1="83.29" y1="41.65" x2="335.3" y2="293.66" gradientUnits="userSpaceOnUse">
      <stop offset="0" stop-color="#bf3dd1"/>
      <stop offset=".51" stop-color="#6fc"/>
      <stop offset="1" stop-color="#3e5cbf"/>
    </linearGradient>
  </defs>
  <g id="Layer_1-2" data-name="Layer 1">
    <path class="cls-1" d="M360.17,102.3v136.98c0,43.71-35.56,79.26-79.26,79.26h-136.98c-43.71,0-79.26-35.56-79.26-79.26,0-6.35,5.15-11.5,11.5-11.5s11.5,5.15,11.5,11.5c0,31.02,25.24,56.26,56.26,56.26h136.98c31.02,0,56.26-25.24,56.26-56.26V102.3c0-31.02-25.24-56.26-56.26-56.26h-65.05c-6.35,0-11.5-5.15-11.5-11.5s5.15-11.5,11.5-11.5h65.05c43.71,0,79.26,35.56,79.26,79.26ZM140.68,124.53h0c0-34.39,27.88-62.26,62.26-62.26h0c-34.39,0-62.26-27.88-62.26-62.26h0c0,34.39-27.88,62.26-62.26,62.26h0c34.39,0,62.26,27.88,62.26,62.26ZM70.7,207.19c0-32.41,26.27-58.69,58.69-58.69h0c-32.41,0-58.69-26.27-58.69-58.69h0c0,32.41-26.27,58.69-58.69,58.69h0c32.41,0,58.69,26.27,58.69,58.69h0ZM38.13,80.42h0c0-21.06,17.07-38.13,38.13-38.13h0c-21.06,0-38.13-17.07-38.13-38.13h0c0,21.06-17.07,38.13-38.13,38.13h0c21.06,0,38.13,17.07,38.13,38.13ZM188.56,222.54v-98.73h-19.8v98.73h19.8ZM202,222.54l35.5-98.87h23.05l35.5,98.87h-20.93l-6.51-18.81h-39.32l-6.51,18.81h-20.79ZM234.67,187.88h28.57l-14.29-41.3-14.29,41.3Z"/>
  </g>
</svg>